<?xml version="1.0" standalone="no"?>
<!DOCTYPE svg PUBLIC "-//W3C//DTD SVG 20010904//EN"
 "http://www.w3.org/TR/2001/REC-SVG-20010904/DTD/svg10.dtd">
<svg version="1.0" xmlns="http://www.w3.org/2000/svg"
 width="800.000000pt" height="800.000000pt" viewBox="0 0 800.000000 800.000000"
 preserveAspectRatio="xMidYMid meet">

<g transform="translate(0.000000,800.000000) scale(0.100000,-0.100000)"
fill="#fff" stroke="none">
<path d="M0 4000 l0 -4000 4000 0 4000 0 0 4000 0 4000 -4000 0 -4000 0 0
-4000z m4693 1426 c42 -17 83 -66 97 -114 6 -23 10 -248 10 -615 0 -502 -2
-583 -15 -612 -17 -35 -52 -59 -79 -53 -15 3 -16 58 -19 610 l-2 608 -28 27
-27 28 -424 0 c-403 0 -425 -1 -445 -19 -21 -19 -21 -21 -21 -638 0 -618 0
-618 -21 -618 -31 0 -57 17 -74 50 -13 24 -15 116 -15 636 -1 689 -4 657 80
701 43 23 43 23 497 23 361 0 460 -3 486 -14z m-255 -394 c7 -50 -3 -52 -249
-52 -218 0 -229 1 -239 20 -8 14 -8 26 0 40 11 20 19 20 248 18 l237 -3 3 -23z
m-2 -287 c13 -52 1 -55 -240 -55 -159 0 -225 3 -234 12 -13 13 -16 50 -5 61 3
4 111 7 239 7 l234 0 6 -25z m-39 -272 c3 -7 -9 -26 -25 -43 l-30 -30 -192 0
c-189 0 -191 0 -199 23 -11 28 -4 46 23 57 34 14 419 7 423 -7z m202 -38 c40
-20 58 -67 39 -97 -33 -50 -202 -219 -224 -224 -37 -9 -69 3 -82 31 -19 42
-15 53 51 123 34 37 80 89 102 116 32 39 58 60 83 65 2 1 16 -6 31 -14z
m-1819 -303 l35 -8 5 -134 5 -135 110 -5 110 -5 0 -85 0 -85 -110 -5 -110 -5
-3 -208 c-2 -177 0 -213 14 -243 22 -47 59 -64 138 -64 97 0 96 1 96 -94 0
-50 -5 -87 -12 -94 -18 -18 -165 -15 -222 4 -68 23 -147 99 -182 176 -29 63
-29 64 -32 296 l-4 232 -58 0 c-77 0 -90 13 -90 90 0 89 1 90 86 90 l74 0 0
135 c0 110 3 136 15 143 21 11 92 13 135 4z m2653 -5 c17 -11 18 -45 15 -462
l-3 -450 -28 -57 c-54 -111 -170 -197 -286 -213 -60 -8 -149 8 -209 37 -75 37
-155 119 -187 190 -57 127 -57 328 1 446 35 72 121 154 201 194 60 29 75 32
192 37 l126 6 3 130 c2 108 5 132 19 143 22 16 134 16 156 -1z m886 -2 c14 -8
15 -761 1 -836 -24 -129 -119 -253 -240 -312 -61 -30 -71 -32 -175 -32 -108 0
-113 1 -186 37 -159 79 -249 228 -249 413 0 230 156 421 373 456 80 13 141 4
217 -32 34 -16 64 -29 66 -29 2 0 4 62 4 139 0 176 4 198 39 205 34 6 136 0
150 -9z m-2839 -135 l5 -135 95 -3 c75 -2 98 -6 108 -19 15 -21 16 -135 0
-151 -8 -8 -46 -12 -106 -12 l-93 0 3 -231 3 -231 33 -29 c28 -25 40 -29 91
-29 92 0 91 1 91 -101 0 -87 -1 -89 -26 -95 -14 -4 -60 -4 -103 -2 -127 7
-205 61 -260 178 -25 54 -26 61 -29 298 l-4 242 -63 0 c-81 0 -95 12 -95 86 0
86 8 94 90 94 l70 0 0 133 c0 74 3 137 7 141 4 4 46 5 93 4 l85 -3 5 -135z
m-2166 -168 c87 -41 149 -100 189 -181 l32 -66 3 -293 c2 -215 0 -297 -9 -308
-15 -18 -159 -20 -177 -2 -9 9 -12 83 -12 270 0 281 -4 304 -58 361 -37 39
-112 59 -170 46 -60 -13 -96 -40 -121 -92 -20 -40 -21 -60 -21 -301 0 -158 -4
-265 -10 -277 -9 -16 -22 -19 -89 -19 -56 0 -82 4 -90 14 -9 11 -11 95 -9 313
l3 298 28 55 c51 99 146 178 246 207 75 21 189 10 265 -25z m884 20 c167 -53
297 -207 322 -383 31 -218 -95 -424 -307 -501 -75 -27 -205 -30 -283 -6 -135
42 -256 162 -299 296 -20 62 -23 87 -19 176 4 89 9 112 36 170 55 117 186 228
299 255 67 16 187 12 251 -7z m2183 -24 c96 -48 143 -88 191 -162 98 -152 105
-346 16 -493 -68 -113 -195 -201 -327 -225 -217 -41 -458 117 -515 337 -46
174 5 351 134 467 99 88 185 118 331 115 88 -2 102 -6 170 -39z m2611 0 c90
-44 150 -95 199 -171 50 -77 69 -146 69 -249 0 -184 -101 -343 -267 -421 -131
-61 -307 -47 -431 33 -297 191 -276 632 38 799 77 41 125 51 232 47 75 -3 97
-8 160 -38z"/>
<path d="M5048 3638 c-46 -12 -110 -67 -132 -112 -24 -50 -22 -217 3 -272 28
-61 80 -97 150 -102 69 -5 108 12 148 65 l28 36 3 199 3 198 -83 -1 c-46 -1
-99 -5 -120 -11z"/>
<path d="M5834 3636 c-63 -20 -111 -62 -140 -122 -23 -46 -26 -64 -22 -127 4
-89 39 -154 107 -202 39 -27 50 -30 125 -30 73 0 87 3 124 28 52 34 99 114
108 183 8 66 -15 146 -54 194 -57 68 -168 102 -248 76z"/>
<path d="M1983 3642 c-113 -40 -173 -123 -173 -241 1 -145 91 -246 230 -258
107 -10 201 43 253 141 30 58 30 163 -2 228 -55 115 -189 172 -308 130z"/>
<path d="M4145 3650 c-64 -11 -109 -35 -148 -80 -89 -104 -87 -246 6 -347 54
-59 106 -83 182 -83 112 0 217 75 245 176 16 55 9 158 -13 201 -50 95 -163
151 -272 133z"/>
<path d="M6750 3646 c-99 -26 -168 -94 -190 -187 -56 -234 211 -411 402 -266
115 88 133 268 36 373 -68 73 -161 104 -248 80z"/>
</g>
</svg>
